<?xml version="1.0" encoding="utf-8"?>
<!-- Generator: Adobe Illustrator 16.2.1, SVG Export Plug-In . SVG Version: 6.00 Build 0)  -->
<!DOCTYPE svg PUBLIC "-//W3C//DTD SVG 1.1//EN" "http://www.w3.org/Graphics/SVG/1.1/DTD/svg11.dtd">
<svg version="1.1" id="Calque_1" xmlns="http://www.w3.org/2000/svg" xmlns:xlink="http://www.w3.org/1999/xlink" x="0px" y="0px"
	 width="259.945px" height="93.302px" viewBox="6.905 7.971 259.945 93.302" enable-background="new 6.905 7.971 259.945 93.302"
	 xml:space="preserve">
<g>
	<g>
		<defs>
			<rect id="SVGID_1_" x="6.905" y="7.971" width="259.582" height="93.302"/>
		</defs>
		<clipPath id="SVGID_2_">
			<use xlink:href="#SVGID_1_"  overflow="visible"/>
		</clipPath>
		<path clip-path="url(#SVGID_2_)" fill="#DDDDDE" d="M243.904,59.592c5.767,0,14.655,7.447,14.655,20.541
			c0,5.045-1.922,18.498-14.056,18.498c-5.045,0-14.652-5.525-14.652-21.141c0-4.806,1.74-10.99,5.404-14.535
			C239.341,58.992,242.823,59.592,243.904,59.592 M244.146,56.949c-5.165,0-11.652,1.2-16.938,7.688
			c-4.504,5.584-5.523,11.291-5.523,14.894c0,8.649,4.504,15.194,8.769,17.776c4.805,2.883,9.969,3.965,13.573,3.965
			c9.009,0,14.173-3.725,18.017-8.528c3.244-4.084,4.444-8.769,4.444-13.213c0-8.169-3.663-14.113-8.168-17.777
			C253.395,57.791,248.589,56.949,244.146,56.949 M193.822,59.592c5.767,0,14.655,7.447,14.655,20.541
			c0,5.045-1.922,18.498-14.056,18.498c-5.045,0-14.652-5.525-14.652-21.141c0-4.806,1.742-10.99,5.404-14.535
			C189.259,58.992,192.741,59.592,193.822,59.592 M194.063,56.949c-5.165,0-11.652,1.2-16.938,7.688
			c-4.504,5.584-5.523,11.291-5.523,14.894c0,8.649,4.504,15.194,8.769,17.776c4.805,2.883,9.969,3.965,13.573,3.965
			c9.009,0,14.173-3.725,18.017-8.528c3.244-4.084,4.444-8.769,4.444-13.213c0-8.169-3.663-14.113-8.168-17.777
			C203.312,57.791,198.507,56.949,194.063,56.949 M154.827,82.355c0,1.683,0,10.81-0.119,12.492
			c-0.121,3.182-0.602,3.303-4.205,3.303h-2.342c-0.421,0-0.66,0.06-0.66,0.42v1.562c0,0.301,0.181,0.422,0.479,0.422
			c0.359,0,8.769-0.182,9.97-0.182c0.961,0,9.129,0.182,9.609,0.182c0.479,0,0.602-0.121,0.602-0.479V98.57
			c0-0.239-0.121-0.42-0.602-0.42h-2.162c-3.363,0-3.604-0.36-3.604-3.483c0-0.779-0.121-12.191-0.121-14.232V77.91
			c0-7.748,0.242-17.117,0.242-17.597c0-0.723-0.121-0.961-0.48-0.961c-0.36,0-0.723,0.181-1.081,0.359L146.54,66.92
			c-0.36,0.24-0.48,0.479-0.36,0.721l0.479,1.201c0.12,0.24,0.36,0.24,0.6,0.119l3.604-1.08c1.081-0.359,1.923-0.48,2.521-0.48
			c1.08,0,1.441,1.322,1.441,3.123L154.827,82.355L154.827,82.355z M101.136,86.859c-0.24,0-0.301,0.119-0.36,0.48
			c-0.12,0.721-0.961,10.449-1.081,11.172c0,0.6,0.24,0.959,0.72,0.959c0.481,0,0.722-0.119,1.081-0.721
			c0.361-0.601,0.602-1.08,0.961-1.08c0.361,0,0.722,0.24,1.442,0.721c2.401,1.801,5.285,2.883,10.21,2.883
			c7.927,0,12.731-6.006,12.731-13.334c0-4.022-1.081-6.545-3.003-8.588c-2.281-2.401-5.165-3.604-8.647-4.686
			c-2.403-0.72-5.767-2.162-7.327-3.724c-1.442-1.562-1.682-3.362-1.682-5.403c0-2.224,1.922-6.066,6.726-6.066
			c2.763,0,4.685,0.842,6.246,2.521c2.163,2.282,3.124,4.686,3.724,6.366c0.12,0.361,0.36,0.421,0.602,0.361l0.961-0.303
			c0.24-0.06,0.359-0.18,0.359-0.42c0-0.601-0.961-9.008-0.961-9.97c0-0.6-0.12-0.961-0.479-0.961c-0.361,0-0.602,0.121-0.841,0.361
			l-0.781,0.779c-0.3,0.301-0.661,0.42-1.261,0.182c-1.201-0.481-3.604-1.442-7.568-1.442c-3.483,0-6.126,0.842-8.528,2.883
			c-2.883,2.283-4.204,5.045-4.204,8.408c0,3.663,0.961,6.668,3.004,8.59c2.883,2.643,6.847,4.323,8.768,5.043
			c6.367,2.403,8.889,4.205,8.889,9.729c0,4.984-4.563,7.027-7.807,7.027c-3.003,0-6.126-1.441-7.928-4.324
			c-1.683-2.643-2.162-4.926-2.282-6.848c0-0.359-0.12-0.48-0.361-0.48L101.136,86.859z M71.167,79.352
			c1.922,0,4.806,0.121,6.967,0.359c1.321,0.121,2.463,0.961,3.004,2.162c0.3,0.723,0.72,2.043,0.961,3.004
			c0.119,0.36,0.239,0.479,0.479,0.42l1.321-0.238c0.36-0.062,0.48-0.121,0.48-0.422c-0.12-1.32-0.36-4.203-0.36-6.604
			c0-1.562,0-5.527,0.121-6.488c0.06-0.359-0.121-0.479-0.361-0.479l-1.562-0.121c-0.24,0-0.48,0.121-0.48,0.48
			c0,1.08-0.6,2.582-0.961,3.363c-0.72,1.44-1.441,1.922-2.762,2.162c-0.722,0.18-5.045,0.301-6.848,0.301l0.12-17.357l9.129,0.24
			c1.683,0.061,3.304,0.842,4.564,1.562c1.441,0.841,6.367,6.365,6.606,6.726c0.181,0.303,0.36,0.361,0.54,0.303l1.081-0.481
			c0.241-0.119,0.301-0.3,0.182-0.66c-0.241-0.601-2.523-8.769-2.764-9.549c-0.06-0.24-0.18-0.361-0.48-0.361
			c-0.3,0-1.441,0.061-2.402,0.061c-2.642,0-16.456,0.121-19.098,0.121h-1.683c-4.925,0.06-7.087-0.182-8.407-0.182
			c-0.301,0-0.361,0.121-0.361,0.42v1.562c0,0.302,0.121,0.421,0.361,0.421h2.281c1.803,0,2.402,0.481,2.644,2.102
			c0.12,0.842,0.24,8.289,0.24,13.215v5.885V95.57c0,2.222-0.24,2.582-3.004,2.582h-2.042c-0.48,0-0.601,0.119-0.601,0.48v1.441
			c0,0.358,0.12,0.479,0.481,0.479c0.54,0,1.381-0.061,2.582-0.121c1.262,0,2.883-0.061,5.104-0.061c10.03,0,16.216,0.061,20,0.061
			c3.723,0.062,5.045,0.121,5.345,0.121c0.721,0,1.142-0.361,1.321-0.9l2.883-9.01c0.12-0.301,0.061-0.479-0.12-0.602l-0.961-0.601
			c-0.239-0.118-0.421-0.061-0.661,0.24c-1.141,1.441-4.504,5.404-5.585,6.365c-1.562,1.322-3.844,1.924-4.925,2.043
			c-1.201,0.119-3.964,0.24-5.045,0.24c-2.282,0-3.723-0.24-4.684-0.48c-1.322-0.358-2.403-1.562-2.403-4.686
			c0-1.08-0.12-6.965-0.18-10.209L71.167,79.352z M20.838,74.307c0-0.961,0-8.768,0.12-11.291c0-1.201,0.241-2.162,1.082-2.643
			c0.96-0.601,2.522-0.601,3.843-0.601c4.926,0,10.21,2.162,13.453,5.646c2.764,3.123,4.806,8.289,4.806,13.094
			c0,5.525-1.803,10.449-4.324,13.691c-3.003,3.965-7.809,6.065-12.492,6.065c-2.283,0-4.565-0.479-5.285-1.621
			c-0.841-1.2-1.082-2.162-1.082-3.362c0-3.724-0.12-13.935-0.12-14.654V74.307z M13.271,77.311c0,4.562-0.24,18.138-0.42,19.338
			C12.67,97.67,12.07,98.15,10.87,98.15H7.385c-0.359,0-0.479,0.119-0.479,0.361v1.5c0,0.42,0.12,0.541,0.36,0.541
			c0.841,0,3.242-0.182,8.527-0.182c3.003,0,9.129,0.182,11.412,0.182c4.083,0,13.453-0.061,19.338-6.428
			c3.964-4.324,5.887-8.888,5.887-15.734c0-6.967-2.764-12.012-6.728-15.254c-5.525-4.686-12.011-5.467-20.059-5.467
			c-3.003,0-6.006,0.182-9.01,0.182c-4.203,0-7.326-0.182-9.068-0.182c-0.3,0-0.54,0.121-0.54,0.361v1.62
			c0,0.302,0.24,0.42,0.479,0.42h3.244c1.201,0,2.042,0.242,2.162,1.683c0.12,0.902,0.36,9.43,0.36,10.992V77.311z"/>
	</g>
	<g>
		<defs>
			<rect id="SVGID_3_" x="6.905" y="7.971" width="259.582" height="93.302"/>
		</defs>
		<clipPath id="SVGID_4_">
			<use xlink:href="#SVGID_3_"  overflow="visible"/>
		</clipPath>
		<path clip-path="url(#SVGID_4_)" fill="#DDDDDE" d="M226.417,33.014c0,4.806-0.12,13.453-0.18,14.054
			c-0.181,1.742-0.662,2.104-1.742,2.104h-3.723c-0.361,0-0.482,0.12-0.482,0.479v1.384c0,0.3,0.121,0.54,0.482,0.54
			c0.84,0,3.122-0.182,9.008-0.182c5.285,0,8.168,0.182,8.889,0.182c0.48,0,0.48-0.24,0.48-0.602V49.59c0-0.18,0-0.42-0.361-0.42
			h-3.242c-1.081,0-1.622-0.961-1.682-3.243c0-1.021-0.121-9.79-0.121-13.393V28.33c0-1.562,0-13.573,0.062-14.896
			c0.061-1.261,0.18-2.342,1.741-2.342h2.644c0.359,0,0.479-0.24,0.479-0.6V9.231c0-0.3-0.12-0.54-0.359-0.54
			c-0.722,0-2.764,0.24-11.53,0.182c-1.442,0-2.164,0.12-2.344,0.721c-0.301,1.201-5.705,13.573-6.785,16.095
			c-1.562,3.544-5.826,13.453-6.367,14.534c-1.801-4.924-10.209-24.864-12.371-30.509c-0.301-0.781-0.721-1.021-1.441-1.021
			c-0.722,0-2.401,0.182-5.285,0.182c-6.366,0-7.929-0.182-8.528-0.182c-0.36,0-0.48,0.24-0.48,0.36v1.622
			c0,0.18,0.12,0.42,0.48,0.42h2.643c2.644,0,2.943,1.321,2.943,3.484v10.269c0,1.081-0.36,15.856-0.901,20.062
			c-0.3,2.102-0.961,4.264-3.003,4.264h-2.762c-0.361,0-0.361,0.24-0.361,0.36v1.502c0,0.42,0,0.54,0.48,0.54
			c0.601,0,2.643-0.182,7.808-0.182c4.565,0,6.245,0.182,6.848,0.182c0.479,0,0.602-0.24,0.602-0.48V49.59
			c0-0.18-0.121-0.42-0.48-0.42h-2.643c-1.922,0-2.644-2.282-2.883-5.045c-0.361-3.904-0.302-14.114-0.302-14.834
			c0-0.722,0.062-15.856,0.302-16.696c0.719,0.72,6.246,14.173,7.326,16.938c0.359,0.961,8.168,19.697,8.408,20.059
			c0.239,0.721,0.602,1.081,0.961,1.081c0.602,0,1.081-0.84,1.32-1.321c0.302-0.6,6.427-14.772,7.327-16.694
			c0.722-1.562,8.287-19.1,8.77-19.939h0.239c0.12,0.24,0.12,15.134,0.12,16.936v3.361H226.417z M142.696,28.331
			c0,7.867,0.24,11.831,1.08,14.474c1.202,3.844,3.604,6.606,7.088,8.048c2.281,0.961,5.766,1.441,8.648,1.441
			c4.563,0,8.407-1.441,10.93-3.725c3.243-2.883,4.686-6.605,5.045-11.53c0.24-2.402,0.36-12.854,0.36-13.693
			c0-0.781,0-9.188,0.12-9.91c0.12-0.66,0.36-2.342,2.522-2.342h2.162c0.299,0,0.358-0.18,0.358-0.54V9.171
			c0-0.3-0.061-0.48-0.6-0.48c-0.48,0-2.402,0.182-6.127,0.182c-3.963,0-6.727-0.182-7.326-0.182c-0.36,0-0.48,0.12-0.48,0.48v1.502
			c0,0.24,0.12,0.42,0.48,0.42h2.162c1.32,0,2.281,1.081,2.462,2.644c0.182,1.382,0.661,6.666,0.661,11.472v10.81
			c0,4.386-1.201,7.868-3.483,10.15c-1.922,1.802-5.285,2.883-8.048,2.883c-2.883,0-6.126-0.961-8.168-3.724
			c-1.441-1.922-1.922-4.686-2.102-7.447c-0.121-1.922-0.182-6.188-0.182-9.189v-7.445c0-3.483,0.12-7.087,0.182-7.81
			c0.06-1.261,1.141-2.342,2.941-2.342h2.522c0.359,0,0.479-0.12,0.479-0.479V9.112c0-0.301-0.12-0.421-0.479-0.421
			c-0.721,0-3.604,0.182-8.648,0.182c-5.766,0-8.648-0.182-9.249-0.182c-0.48,0-0.601,0.12-0.601,0.48v1.382
			c0,0.42,0.12,0.54,0.481,0.54h2.762c1.562,0,2.043,0.961,2.043,3.003v14.235H142.696z M109.364,12.956
			c0-0.723,0.24-1.441,0.72-1.742c0.481-0.3,1.202-0.36,2.162-0.36c3.003,0,5.767,0.661,7.928,2.582
			c1.502,1.382,2.644,3.964,2.644,6.729c0,2.763-1.922,10.33-11.291,10.33c-0.721,0-1.442-0.12-2.282-0.24L109.364,12.956z
			 M109.123,32.415c0.661-0.062,1.683-0.12,1.922-0.12c2.523,0,3.904,1.621,5.406,3.723c0.96,1.322,2.642,4.084,3.243,5.165
			c0.54,0.961,2.882,5.285,3.964,6.967c0.78,1.263,1.921,2.885,2.642,3.425c1.321-0.062,3.604-0.182,5.285-0.182
			c3.845,0,5.405,0.182,5.887,0.182c0.359,0,0.479-0.182,0.479-0.602v-1.261c0-0.241-0.12-0.421-0.479-0.421
			c-1.441,0-3.123-0.12-4.265-1.143c-0.9-0.841-4.745-6.245-5.104-6.847c-0.481-0.72-4.204-6.366-4.926-7.327
			c-0.841-1.081-1.922-2.162-3.603-2.762v-0.241c6.606-1.081,11.17-4.204,11.17-11.771c0-2.282-1.081-4.807-3.243-6.729
			c-2.401-2.162-6.126-3.783-10.93-3.783c-1.802,0-7.327,0.182-10.691,0.182c-5.885,0-7.807-0.182-8.228-0.182
			c-0.3,0-0.42,0.12-0.42,0.421v1.621c0,0.24,0.12,0.36,0.42,0.36h2.343c1.081,0,1.921,0.961,1.921,3.003V29.89
			c0,5.646,0,11.291-0.12,17.297c0,1.622-0.961,1.982-2.281,1.982h-2.042c-0.24,0-0.36,0.18-0.36,0.479v1.384
			c0,0.358,0.12,0.539,0.479,0.539c0.602,0,2.042-0.181,7.929-0.181c6.246,0,7.446,0.181,8.228,0.181
			c0.48,0,0.661-0.119,0.661-0.539V49.59c0-0.24-0.121-0.42-0.48-0.42h-3.004c-0.961,0-1.381-1.081-1.561-2.282
			c-0.12-0.9-0.241-7.628-0.241-11.229V32.415L109.123,32.415z M68.405,10.615c5.765,0,14.654,7.445,14.654,20.539
			c0,5.045-1.922,18.496-14.055,18.496c-5.045,0-14.653-5.523-14.653-21.14c0-4.805,1.741-10.991,5.404-14.534
			C63.84,10.012,67.323,10.615,68.405,10.615 M68.645,7.97c-5.165,0-11.652,1.201-16.938,7.688
			c-4.504,5.585-5.524,11.29-5.524,14.894c0,8.648,4.504,15.195,8.769,17.777c4.804,2.883,9.969,3.964,13.573,3.964
			c9.008,0,14.173-3.725,18.017-8.528c3.243-4.084,4.444-8.769,4.444-13.213c0-8.168-3.663-14.114-8.167-17.777
			C77.894,8.811,73.089,7.97,68.645,7.97 M20.839,10.973c2.282,0,10.091,0.24,11.651,0.541c1.562,0.36,3.123,1.441,4.084,2.762
			c2.162,2.403,3.724,4.445,4.324,5.526c0.36,0.48,0.48,0.601,0.721,0.48l1.141-0.48c0.181-0.06,0.24-0.241,0.181-0.479
			c-0.24-0.723-2.162-9.011-2.402-9.972c0-0.479-0.12-0.72-0.359-0.84c-0.24,0-1.201,0.24-2.282,0.24c-3.845,0-19.7,0.12-20.54,0.12
			c-6.848,0-9.129-0.182-9.73-0.182c-0.239,0-0.479,0.12-0.479,0.36v1.742c0,0.18,0.24,0.3,0.479,0.3h3.003
			c1.562,0,2.402,0.602,2.402,1.682c0,0.66,0.121,9.189,0.121,11.831v4.204c0,10.33-0.121,17.898-0.181,19.101
			c-0.061,1.021-0.54,1.261-1.982,1.261H8.587c-0.239,0-0.359,0.12-0.359,0.36v1.621c0,0.301,0.12,0.421,0.359,0.421
			c0.842,0,3.123-0.182,8.528-0.182c5.886,0,8.288,0.182,8.889,0.182c0.36,0,0.48-0.12,0.48-0.48V49.59c0-0.3-0.12-0.42-0.48-0.42
			h-3.242c-1.442,0-1.923-0.24-1.923-1.922V32.294c1.803,0,4.624,0,6.907,0.359c1.201,0.239,2.282,1.142,3.003,2.463
			c0.3,0.541,0.84,2.401,0.9,2.821c0.061,0.36,0.241,0.481,0.48,0.481l1.321-0.241c0.24-0.06,0.421-0.18,0.361-0.6
			c-0.121-1.201-0.361-4.084-0.361-6.246c0-0.841,0-5.768,0.12-6.848c0-0.239-0.12-0.359-0.36-0.359l-1.201-0.12
			c-0.239,0-0.421,0.24-0.48,0.479c-0.24,1.08-0.6,2.281-1.081,3.062c-1.021,1.502-1.982,2.222-3.183,2.342
			c-0.961,0.241-4.744,0.301-6.427,0.301V10.973z"/>
	</g>
</g>
</svg>
